<svg width="211" height="43" viewBox="0 0 211 43" fill="none" xmlns="http://www.w3.org/2000/svg">
<g filter="url(#filter0_d_63_2868)">
<path d="M53.404 16.144C55.144 16.144 56.488 14.992 56.488 12.856V11.692H53.548V13.048H55.024V13.18C55.024 14.056 54.34 14.752 53.404 14.752C51.844 14.752 51.208 13.312 51.208 11.8C51.208 10.492 51.712 8.848 53.404 8.848C54.196 8.848 54.688 9.328 55.06 9.88L56.344 9.148C55.792 8.272 55.024 7.456 53.404 7.456C50.884 7.456 49.72 9.748 49.72 11.8C49.72 13.996 50.812 16.144 53.404 16.144ZM58.7997 16H60.2397V12.712H61.9917L63.6117 16H65.2317L63.5517 12.556C64.7397 12.196 65.2797 11.116 65.2797 10.156C65.2797 8.836 64.6077 7.6 62.5197 7.6H58.7997V16ZM60.2397 11.344V8.968H62.5437C63.5277 8.968 63.7917 9.592 63.7917 10.156C63.7917 10.768 63.4797 11.344 62.5437 11.344H60.2397ZM70.9399 16.144C73.6519 16.144 74.6239 13.876 74.6239 11.8C74.6239 9.724 73.6519 7.456 70.9399 7.456C68.2399 7.456 67.2559 9.724 67.2559 11.8C67.2559 13.876 68.2399 16.144 70.9399 16.144ZM70.9399 14.764C69.3079 14.764 68.7439 13.168 68.7439 11.8C68.7439 10.504 69.3079 8.836 70.9399 8.836C72.5719 8.836 73.1359 10.42 73.1359 11.8C73.1359 13.084 72.5599 14.764 70.9399 14.764ZM80.1844 16.144C81.9604 16.144 83.4604 15.28 83.4604 12.796V7.6H82.0204V12.796C82.0204 14.332 81.2644 14.764 80.1844 14.764C79.0924 14.764 78.3484 14.332 78.3484 12.796V7.6H76.9084V12.796C76.9084 15.316 78.4564 16.144 80.1844 16.144ZM92.5691 16V7.6H91.1411V12.82C91.1411 13 91.1531 13.24 91.1771 13.456C91.0691 13.24 90.9491 13 90.8291 12.82L87.4331 7.6H86.0411V16H87.4691V10.696C87.4691 10.504 87.4571 10.264 87.4331 10.072C87.5411 10.288 87.6731 10.528 87.7811 10.696L91.2611 16H92.5691ZM95.2075 7.6V16H97.7515C100.836 16 101.844 13.72 101.844 11.8C101.844 9.712 100.74 7.6 97.7995 7.6H95.2075ZM97.9555 14.644H96.6475V8.956H98.0875C99.6835 8.956 100.355 10.384 100.355 11.8C100.355 13.12 99.7435 14.644 97.9555 14.644ZM105.142 16H106.462L107.794 10.792C107.878 10.468 107.926 10.24 107.95 10.024C107.974 10.24 108.022 10.468 108.118 10.804L109.474 16H110.794L112.606 7.6H111.154L110.158 12.544C110.074 12.916 110.038 13.144 110.014 13.336C109.99 13.144 109.954 12.916 109.846 12.532L108.586 7.6H107.362L106.126 12.544C106.03 12.928 105.982 13.156 105.958 13.348C105.934 13.156 105.886 12.928 105.814 12.544L104.818 7.6H103.342L105.142 16ZM119.753 16H121.265L118.145 7.6H116.717L113.585 16H115.109L115.769 14.164H119.093L119.753 16ZM118.637 12.868H116.225L117.161 10.348C117.245 10.108 117.365 9.748 117.437 9.496C117.497 9.748 117.617 10.108 117.713 10.348L118.637 12.868ZM125.479 8.98H127.867V7.6H121.651V8.98H124.039V16H125.479V8.98ZM129.963 16H135.699V14.644H131.403V12.34H133.887V10.984H131.403V8.956H135.435V7.6H129.963V16ZM137.922 16H139.362V12.712H141.114L142.734 16H144.354L142.674 12.556C143.862 12.196 144.402 11.116 144.402 10.156C144.402 8.836 143.73 7.6 141.642 7.6H137.922V16ZM139.362 11.344V8.968H141.666C142.65 8.968 142.914 9.592 142.914 10.156C142.914 10.768 142.602 11.344 141.666 11.344H139.362ZM55.612 32H57.124L54.004 23.6H52.576L49.444 32H50.968L51.628 30.164H54.952L55.612 32ZM54.496 28.868H52.084L53.02 26.348C53.104 26.108 53.224 25.748 53.296 25.496C53.356 25.748 53.476 26.108 53.572 26.348L54.496 28.868ZM61.8868 32.144C63.3868 32.144 64.3108 31.34 64.8268 30.176L63.4948 29.672C63.1108 30.308 62.6428 30.752 61.8868 30.752C60.4708 30.752 59.8588 29.192 59.8588 27.8C59.8588 26.48 60.3388 24.836 61.8868 24.836C62.6788 24.836 63.0988 25.196 63.5188 25.832L64.8148 25.244C64.4548 24.356 63.4828 23.456 61.8868 23.456C59.2948 23.456 58.3708 25.868 58.3708 27.8C58.3708 29.876 59.2708 32.144 61.8868 32.144ZM70.104 32.144C71.604 32.144 72.528 31.34 73.044 30.176L71.712 29.672C71.328 30.308 70.86 30.752 70.104 30.752C68.688 30.752 68.076 29.192 68.076 27.8C68.076 26.48 68.556 24.836 70.104 24.836C70.896 24.836 71.316 25.196 71.736 25.832L73.032 25.244C72.672 24.356 71.7 23.456 70.104 23.456C67.512 23.456 66.588 25.868 66.588 27.8C66.588 29.876 67.488 32.144 70.104 32.144ZM78.4892 32.144C81.2012 32.144 82.1732 29.876 82.1732 27.8C82.1732 25.724 81.2012 23.456 78.4892 23.456C75.7892 23.456 74.8052 25.724 74.8052 27.8C74.8052 29.876 75.7892 32.144 78.4892 32.144ZM78.4892 30.764C76.8572 30.764 76.2932 29.168 76.2932 27.8C76.2932 26.504 76.8572 24.836 78.4892 24.836C80.1212 24.836 80.6852 26.42 80.6852 27.8C80.6852 29.084 80.1092 30.764 78.4892 30.764ZM87.7337 32.144C89.5097 32.144 91.0097 31.28 91.0097 28.796V23.6H89.5697V28.796C89.5697 30.332 88.8137 30.764 87.7337 30.764C86.6417 30.764 85.8977 30.332 85.8977 28.796V23.6H84.4577V28.796C84.4577 31.316 86.0057 32.144 87.7337 32.144ZM100.118 32V23.6H98.6903V28.82C98.6903 29 98.7023 29.24 98.7263 29.456C98.6183 29.24 98.4983 29 98.3783 28.82L94.9823 23.6H93.5903V32H95.0183V26.696C95.0183 26.504 95.0063 26.264 94.9823 26.072C95.0903 26.288 95.2223 26.528 95.3303 26.696L98.8103 32H100.118ZM106.045 24.98H108.433V23.6H102.217V24.98H104.605V32H106.045V24.98ZM110.589 32H112.029V23.6H110.589V32ZM121.254 32V23.6H119.826V28.82C119.826 29 119.838 29.24 119.862 29.456C119.754 29.24 119.634 29 119.514 28.82L116.118 23.6H114.726V32H116.154V26.696C116.154 26.504 116.142 26.264 116.118 26.072C116.226 26.288 116.358 26.528 116.466 26.696L119.946 32H121.254ZM127.277 32.144C129.017 32.144 130.361 30.992 130.361 28.856V27.692H127.421V29.048H128.897V29.18C128.897 30.056 128.213 30.752 127.277 30.752C125.717 30.752 125.081 29.312 125.081 27.8C125.081 26.492 125.585 24.848 127.277 24.848C128.069 24.848 128.561 25.328 128.933 25.88L130.217 25.148C129.665 24.272 128.897 23.456 127.277 23.456C124.757 23.456 123.593 25.748 123.593 27.8C123.593 29.996 124.685 32.144 127.277 32.144ZM136.214 32H137.654V28.82H139.706C141.722 28.82 142.526 27.404 142.526 26.204C142.526 24.92 141.794 23.6 139.706 23.6H136.214V32ZM139.778 27.452H137.654V24.968H139.778C140.762 24.968 141.038 25.676 141.038 26.204C141.038 26.792 140.702 27.452 139.778 27.452ZM144.443 32H149.963V30.62H145.883V23.6H144.443V32ZM157.478 32H158.99L155.87 23.6H154.442L151.31 32H152.834L153.494 30.164H156.818L157.478 32ZM156.362 28.868H153.95L154.886 26.348C154.97 26.108 155.09 25.748 155.162 25.496C155.222 25.748 155.342 26.108 155.438 26.348L156.362 28.868ZM163.204 24.98H165.592V23.6H159.376V24.98H161.764V32H163.204V24.98ZM167.688 32H169.128V28.34H171.672V26.984H169.128V24.956H173.112V23.6H167.688V32ZM178.176 32.144C180.888 32.144 181.86 29.876 181.86 27.8C181.86 25.724 180.888 23.456 178.176 23.456C175.476 23.456 174.492 25.724 174.492 27.8C174.492 29.876 175.476 32.144 178.176 32.144ZM178.176 30.764C176.544 30.764 175.98 29.168 175.98 27.8C175.98 26.504 176.544 24.836 178.176 24.836C179.808 24.836 180.372 26.42 180.372 27.8C180.372 29.084 179.796 30.764 178.176 30.764ZM184.204 32H185.644V28.712H187.396L189.016 32H190.636L188.956 28.556C190.144 28.196 190.684 27.116 190.684 26.156C190.684 24.836 190.012 23.6 187.924 23.6H184.204V32ZM185.644 27.344V24.968H187.948C188.932 24.968 189.196 25.592 189.196 26.156C189.196 26.768 188.884 27.344 187.948 27.344H185.644ZM200.663 32V23.6H199.259L197.087 28.532C197.003 28.736 196.919 28.964 196.859 29.156C196.799 28.964 196.715 28.736 196.631 28.532L194.471 23.6H193.019V32H194.459V27.536C194.459 27.236 194.435 26.756 194.411 26.528C194.519 26.852 194.675 27.248 194.807 27.536L196.847 32.144L198.887 27.56C199.007 27.26 199.163 26.852 199.271 26.528C199.247 26.756 199.223 27.236 199.223 27.536V32H200.663Z" fill="white"/>
</g>
<g filter="url(#filter1_d_63_2868)">
<path fill-rule="evenodd" clip-rule="evenodd" d="M4.58333 20.0833C6.01007 20.0833 7.16667 18.9267 7.16667 17.5C7.16667 16.0732 6.01007 14.9166 4.58333 14.9166C3.1566 14.9166 2 16.0732 2 17.5C2 18.9267 3.1566 20.0833 4.58333 20.0833ZM7.16667 23.9583C7.16667 25.385 6.01007 26.5416 4.58333 26.5416C3.1566 26.5416 2 25.385 2 23.9583C2 22.5316 3.1566 21.375 4.58333 21.375C6.01007 21.375 7.16667 22.5316 7.16667 23.9583ZM7.16667 30.4166C7.16667 31.8434 6.01007 33 4.58333 33C3.1566 33 2 31.8434 2 30.4166C2 28.9899 3.1566 27.8333 4.58333 27.8333C6.01007 27.8333 7.16667 28.9899 7.16667 30.4166Z" fill="white"/>
</g>
<g filter="url(#filter2_d_63_2868)">
<path fill-rule="evenodd" clip-rule="evenodd" d="M23.9583 20.0833C25.3851 20.0833 26.5417 18.9267 26.5417 17.5C26.5417 16.0732 25.3851 14.9166 23.9583 14.9166C22.5316 14.9166 21.375 16.0732 21.375 17.5C21.375 18.9267 22.5316 20.0833 23.9583 20.0833ZM26.5417 23.9583C26.5417 25.385 25.3851 26.5416 23.9583 26.5416C22.5316 26.5416 21.375 25.385 21.375 23.9583C21.375 22.5316 22.5316 21.375 23.9583 21.375C25.3851 21.375 26.5417 22.5316 26.5417 23.9583ZM26.5417 30.4166C26.5417 31.8434 25.3851 33 23.9583 33C22.5316 33 21.375 31.8434 21.375 30.4166C21.375 28.9899 22.5316 27.8333 23.9583 27.8333C25.3851 27.8333 26.5417 28.9899 26.5417 30.4166Z" fill="white"/>
</g>
<g filter="url(#filter3_d_63_2868)">
<path fill-rule="evenodd" clip-rule="evenodd" d="M11.0416 7.16667C12.4683 7.16667 13.6249 6.01007 13.6249 4.58333C13.6249 3.1566 12.4683 2 11.0416 2C9.61485 2 8.45825 3.1566 8.45825 4.58333C8.45825 6.01007 9.61485 7.16667 11.0416 7.16667ZM13.6249 11.0417C13.6249 12.4684 12.4683 13.625 11.0416 13.625C9.61485 13.625 8.45825 12.4684 8.45825 11.0417C8.45825 9.61494 9.61485 8.45834 11.0416 8.45834C12.4683 8.45834 13.6249 9.61494 13.6249 11.0417ZM11.0416 20.0833C12.4683 20.0833 13.6249 18.9267 13.6249 17.5C13.6249 16.0733 12.4683 14.9167 11.0416 14.9167C9.61485 14.9167 8.45825 16.0733 8.45825 17.5C8.45825 18.9267 9.61485 20.0833 11.0416 20.0833ZM13.6249 23.9583C13.6249 25.3851 12.4683 26.5417 11.0416 26.5417C9.61485 26.5417 8.45825 25.3851 8.45825 23.9583C8.45825 22.5316 9.61485 21.375 11.0416 21.375C12.4683 21.375 13.6249 22.5316 13.6249 23.9583ZM13.6249 30.4167C13.6249 31.8434 12.4683 33 11.0416 33C9.61485 33 8.45825 31.8434 8.45825 30.4167C8.45825 28.9899 9.61485 27.8333 11.0416 27.8333C12.4683 27.8333 13.6249 28.9899 13.6249 30.4167Z" fill="white"/>
</g>
<g filter="url(#filter4_d_63_2868)">
<path fill-rule="evenodd" clip-rule="evenodd" d="M17.5001 13.625C18.9268 13.625 20.0834 12.4684 20.0834 11.0416C20.0834 9.61491 18.9268 8.45831 17.5001 8.45831C16.0733 8.45831 14.9167 9.61491 14.9167 11.0416C14.9167 12.4684 16.0733 13.625 17.5001 13.625ZM20.0834 17.5C20.0834 18.9267 18.9268 20.0833 17.5001 20.0833C16.0733 20.0833 14.9167 18.9267 14.9167 17.5C14.9167 16.0732 16.0733 14.9166 17.5001 14.9166C18.9268 14.9166 20.0834 16.0732 20.0834 17.5ZM17.5001 26.5416C18.9268 26.5416 20.0834 25.385 20.0834 23.9583C20.0834 22.5316 18.9268 21.375 17.5001 21.375C16.0733 21.375 14.9167 22.5316 14.9167 23.9583C14.9167 25.385 16.0733 26.5416 17.5001 26.5416ZM17.5001 33C18.9268 33 20.0834 31.8434 20.0834 30.4166C20.0834 28.9899 18.9268 27.8333 17.5001 27.8333C16.0733 27.8333 14.9167 28.9899 14.9167 30.4166C14.9167 31.8434 16.0733 33 17.5001 33Z" fill="white"/>
</g>
<g filter="url(#filter5_d_63_2868)">
<path fill-rule="evenodd" clip-rule="evenodd" d="M30.4166 13.625C31.8433 13.625 32.9999 12.4684 32.9999 11.0416C32.9999 9.61491 31.8433 8.45831 30.4166 8.45831C28.9898 8.45831 27.8333 9.61491 27.8333 11.0416C27.8333 12.4684 28.9898 13.625 30.4166 13.625ZM32.9999 17.5C32.9999 18.9267 31.8433 20.0833 30.4166 20.0833C28.9898 20.0833 27.8333 18.9267 27.8333 17.5C27.8333 16.0732 28.9898 14.9166 30.4166 14.9166C31.8433 14.9166 32.9999 16.0732 32.9999 17.5ZM30.4166 26.5416C31.8433 26.5416 32.9999 25.385 32.9999 23.9583C32.9999 22.5316 31.8433 21.375 30.4166 21.375C28.9898 21.375 27.8333 22.5316 27.8333 23.9583C27.8333 25.385 28.9898 26.5416 30.4166 26.5416ZM30.4166 33C31.8433 33 32.9999 31.8434 32.9999 30.4166C32.9999 28.9899 31.8433 27.8333 30.4166 27.8333C28.9898 27.8333 27.8333 28.9899 27.8333 30.4166C27.8333 31.8434 28.9898 33 30.4166 33Z" fill="white"/>
</g>
<defs>
<filter id="filter0_d_63_2868" x="43.4441" y="1.45599" width="167.219" height="40.688" filterUnits="userSpaceOnUse" color-interpolation-filters="sRGB">
<feFlood flood-opacity="0" result="BackgroundImageFix"/>
<feColorMatrix in="SourceAlpha" type="matrix" values="0 0 0 0 0 0 0 0 0 0 0 0 0 0 0 0 0 0 127 0" result="hardAlpha"/>
<feOffset dx="2" dy="2"/>
<feGaussianBlur stdDeviation="4"/>
<feComposite in2="hardAlpha" operator="out"/>
<feColorMatrix type="matrix" values="0 0 0 0 0 0 0 0 0 0 0 0 0 0 0 0 0 0 0.15 0"/>
<feBlend mode="normal" in2="BackgroundImageFix" result="effect1_dropShadow_63_2868"/>
<feBlend mode="normal" in="SourceGraphic" in2="effect1_dropShadow_63_2868" result="shape"/>
</filter>
<filter id="filter1_d_63_2868" x="0" y="12.9166" width="13.1667" height="26.0834" filterUnits="userSpaceOnUse" color-interpolation-filters="sRGB">
<feFlood flood-opacity="0" result="BackgroundImageFix"/>
<feColorMatrix in="SourceAlpha" type="matrix" values="0 0 0 0 0 0 0 0 0 0 0 0 0 0 0 0 0 0 127 0" result="hardAlpha"/>
<feOffset dx="2" dy="2"/>
<feGaussianBlur stdDeviation="2"/>
<feComposite in2="hardAlpha" operator="out"/>
<feColorMatrix type="matrix" values="0 0 0 0 0 0 0 0 0 0 0 0 0 0 0 0 0 0 0.1 0"/>
<feBlend mode="normal" in2="BackgroundImageFix" result="effect1_dropShadow_63_2868"/>
<feBlend mode="normal" in="SourceGraphic" in2="effect1_dropShadow_63_2868" result="shape"/>
</filter>
<filter id="filter2_d_63_2868" x="19.375" y="12.9166" width="13.1667" height="26.0834" filterUnits="userSpaceOnUse" color-interpolation-filters="sRGB">
<feFlood flood-opacity="0" result="BackgroundImageFix"/>
<feColorMatrix in="SourceAlpha" type="matrix" values="0 0 0 0 0 0 0 0 0 0 0 0 0 0 0 0 0 0 127 0" result="hardAlpha"/>
<feOffset dx="2" dy="2"/>
<feGaussianBlur stdDeviation="2"/>
<feComposite in2="hardAlpha" operator="out"/>
<feColorMatrix type="matrix" values="0 0 0 0 0 0 0 0 0 0 0 0 0 0 0 0 0 0 0.1 0"/>
<feBlend mode="normal" in2="BackgroundImageFix" result="effect1_dropShadow_63_2868"/>
<feBlend mode="normal" in="SourceGraphic" in2="effect1_dropShadow_63_2868" result="shape"/>
</filter>
<filter id="filter3_d_63_2868" x="6.45825" y="0" width="13.1667" height="39" filterUnits="userSpaceOnUse" color-interpolation-filters="sRGB">
<feFlood flood-opacity="0" result="BackgroundImageFix"/>
<feColorMatrix in="SourceAlpha" type="matrix" values="0 0 0 0 0 0 0 0 0 0 0 0 0 0 0 0 0 0 127 0" result="hardAlpha"/>
<feOffset dx="2" dy="2"/>
<feGaussianBlur stdDeviation="2"/>
<feComposite in2="hardAlpha" operator="out"/>
<feColorMatrix type="matrix" values="0 0 0 0 0 0 0 0 0 0 0 0 0 0 0 0 0 0 0.1 0"/>
<feBlend mode="normal" in2="BackgroundImageFix" result="effect1_dropShadow_63_2868"/>
<feBlend mode="normal" in="SourceGraphic" in2="effect1_dropShadow_63_2868" result="shape"/>
</filter>
<filter id="filter4_d_63_2868" x="12.9167" y="6.45831" width="13.1667" height="32.5417" filterUnits="userSpaceOnUse" color-interpolation-filters="sRGB">
<feFlood flood-opacity="0" result="BackgroundImageFix"/>
<feColorMatrix in="SourceAlpha" type="matrix" values="0 0 0 0 0 0 0 0 0 0 0 0 0 0 0 0 0 0 127 0" result="hardAlpha"/>
<feOffset dx="2" dy="2"/>
<feGaussianBlur stdDeviation="2"/>
<feComposite in2="hardAlpha" operator="out"/>
<feColorMatrix type="matrix" values="0 0 0 0 0 0 0 0 0 0 0 0 0 0 0 0 0 0 0.1 0"/>
<feBlend mode="normal" in2="BackgroundImageFix" result="effect1_dropShadow_63_2868"/>
<feBlend mode="normal" in="SourceGraphic" in2="effect1_dropShadow_63_2868" result="shape"/>
</filter>
<filter id="filter5_d_63_2868" x="25.8333" y="6.45831" width="13.1667" height="32.5417" filterUnits="userSpaceOnUse" color-interpolation-filters="sRGB">
<feFlood flood-opacity="0" result="BackgroundImageFix"/>
<feColorMatrix in="SourceAlpha" type="matrix" values="0 0 0 0 0 0 0 0 0 0 0 0 0 0 0 0 0 0 127 0" result="hardAlpha"/>
<feOffset dx="2" dy="2"/>
<feGaussianBlur stdDeviation="2"/>
<feComposite in2="hardAlpha" operator="out"/>
<feColorMatrix type="matrix" values="0 0 0 0 0 0 0 0 0 0 0 0 0 0 0 0 0 0 0.1 0"/>
<feBlend mode="normal" in2="BackgroundImageFix" result="effect1_dropShadow_63_2868"/>
<feBlend mode="normal" in="SourceGraphic" in2="effect1_dropShadow_63_2868" result="shape"/>
</filter>
</defs>
</svg>
