<svg width="45" height="32" viewBox="0 0 45 32" fill="none" xmlns="http://www.w3.org/2000/svg">
<path d="M41.5632 12.0153C41.5632 11.8314 41.5632 11.5862 41.5632 11.341C41.5632 5.08812 36.4751 0 30.2222 0C25.931 0 22.0077 2.3295 20.046 6.25287C16.7356 6.68199 13.7931 8.52107 11.954 11.2797C11.4636 11.1571 10.9732 11.0958 10.4215 11.0958C4.659 11.0958 0 15.7548 0 21.5172C0 27.2797 0 21.5172 0 21.5785C0 27.341 4.659 32 10.4215 32H28.5057C32.1839 32 35.3103 29.3027 35.9234 25.8084H37.0268H37.1494C37.1494 25.8084 37.2107 25.8084 37.272 25.8084C41.4406 25.8084 44.8736 22.3755 44.8736 18.1456C44.8736 15.7548 43.5862 13.4253 41.5632 12.0153ZM28.567 28.5671H10.4215C6.68199 28.5671 3.61686 25.5632 3.49425 21.8238C3.49425 21.7625 3.55556 21.6398 3.55556 21.5785C3.55556 19.6782 4.29119 17.9617 5.51724 16.7356C6.74329 15.5096 8.45977 14.7126 10.4215 14.7126C10.7893 14.7126 11.1571 14.7126 11.5249 14.7739C12.567 15.0192 13.6092 15.6322 14.3448 16.1839C15.1418 16.6743 16.1839 16.4904 16.7356 15.6935C17.2261 14.8966 17.0421 13.8544 16.2452 13.3027C15.9387 13.1188 15.6322 12.8736 15.2644 12.6897C16.7356 10.7893 19.0038 9.62452 21.5172 9.62452C25.8697 9.62452 29.4253 13.1801 29.4253 17.5326C29.4253 17.9617 29.364 18.3908 29.3027 18.8812C29.1801 19.6169 29.5479 20.4138 30.2835 20.7203C31.7548 21.3946 32.6743 22.8659 32.6743 24.4598C32.6743 26.728 30.8352 28.5671 28.567 28.5671ZM37.272 22.4368C37.2107 22.4368 37.2107 22.4368 37.1494 22.4368C37.0881 22.4368 37.0881 22.4368 37.0268 22.4368H35.7395C35.249 20.7816 34.2682 19.249 32.8582 18.2682C32.8582 18.0843 32.8582 17.8391 32.8582 17.5939C32.8582 12.1379 29.0575 7.66284 24.0306 6.49809C25.5019 4.65901 27.7701 3.49425 30.2222 3.49425C34.5747 3.49425 38.1303 7.04981 38.1303 11.4023C38.1303 11.8314 38.069 12.2605 38.0077 12.751C37.8851 13.4866 38.2529 14.2835 38.9885 14.59C40.4598 15.2644 41.3793 16.7356 41.3793 18.3295C41.3793 20.5977 39.5402 22.4368 37.272 22.4368Z" fill="url(#paint0_linear_294_87)"/>
<defs>
<linearGradient id="paint0_linear_294_87" x1="22.4368" y1="0" x2="22.4368" y2="32" gradientUnits="userSpaceOnUse">
<stop stop-color="#428194"/>
<stop offset="1" stop-color="#B3CCBF"/>
</linearGradient>
</defs>
</svg>
