<svg width="223" height="31" viewBox="0 0 223 31" fill="none" xmlns="http://www.w3.org/2000/svg">
<path d="M56.108 23V13.2H54.47L51.936 18.954C51.838 19.192 51.74 19.458 51.67 19.682C51.6 19.458 51.502 19.192 51.404 18.954L48.884 13.2H47.19V23H48.87V17.792C48.87 17.442 48.842 16.882 48.814 16.616C48.94 16.994 49.122 17.456 49.276 17.792L51.656 23.168L54.036 17.82C54.176 17.47 54.358 16.994 54.484 16.616C54.456 16.882 54.428 17.442 54.428 17.792V23H56.108ZM59.253 23H60.933V13.2H59.253V23ZM67.8322 23.168C69.9042 23.168 71.6542 22.16 71.6542 19.262V13.2H69.9742V19.262C69.9742 21.054 69.0922 21.558 67.8322 21.558C66.5582 21.558 65.6902 21.054 65.6902 19.262V13.2H64.0102V19.262C64.0102 22.202 65.8162 23.168 67.8322 23.168ZM78.613 23.168C80.643 23.168 82.211 21.824 82.211 19.332V17.974H78.781V19.556H80.503V19.71C80.503 20.732 79.705 21.544 78.613 21.544C76.793 21.544 76.051 19.864 76.051 18.1C76.051 16.574 76.639 14.656 78.613 14.656C79.537 14.656 80.111 15.216 80.545 15.86L82.043 15.006C81.399 13.984 80.503 13.032 78.613 13.032C75.673 13.032 74.315 15.706 74.315 18.1C74.315 20.662 75.589 23.168 78.613 23.168ZM88.044 23.168C89.976 23.168 91.488 22.104 91.488 20.214C91.488 18.142 89.724 17.526 88.296 17.022C87.274 16.686 86.42 16.392 86.42 15.678C86.42 15.006 86.938 14.628 87.82 14.628C88.744 14.628 89.304 15.062 89.556 15.636L91.068 15.132C90.718 13.928 89.64 13.032 87.932 13.032C85.874 13.032 84.712 14.236 84.712 15.664C84.712 17.526 86.28 18.072 87.68 18.548C88.786 18.926 89.78 19.276 89.78 20.214C89.78 21.11 89.108 21.572 88.1 21.572C87.092 21.572 86.308 20.956 85.902 20.06L84.348 20.634C84.88 22.188 86.238 23.168 88.044 23.168ZM100.28 23H102.044L98.4044 13.2H96.7384L93.0844 23H94.8624L95.6324 20.858H99.5104L100.28 23ZM98.9784 19.346H96.1644L97.2564 16.406C97.3544 16.126 97.4944 15.706 97.5784 15.412C97.6484 15.706 97.7884 16.126 97.9004 16.406L98.9784 19.346ZM109.355 23H110.895L112.449 16.924C112.547 16.546 112.603 16.28 112.631 16.028C112.659 16.28 112.715 16.546 112.827 16.938L114.409 23H115.949L118.063 13.2H116.369L115.207 18.968C115.109 19.402 115.067 19.668 115.039 19.892C115.011 19.668 114.969 19.402 114.843 18.954L113.373 13.2H111.945L110.503 18.968C110.391 19.416 110.335 19.682 110.307 19.906C110.279 19.682 110.223 19.416 110.139 18.968L108.977 13.2H107.255L109.355 23ZM120.329 23H127.021V21.418H122.009V18.73H124.907V17.148H122.009V14.782H126.713V13.2H120.329V23ZM129.615 23H136.055V21.39H131.295V13.2H129.615V23ZM138.231 23H144.671V21.39H139.911V13.2H138.231V23ZM150.979 23H152.659V19.164H154.703L156.593 23H158.483L156.523 18.982C157.909 18.562 158.539 17.302 158.539 16.182C158.539 14.642 157.755 13.2 155.319 13.2H150.979V23ZM152.659 17.568V14.796H155.347C156.495 14.796 156.803 15.524 156.803 16.182C156.803 16.896 156.439 17.568 155.347 17.568H152.659ZM161.263 23H167.955V21.418H162.943V18.73H165.841V17.148H162.943V14.782H167.647V13.2H161.263V23ZM174.141 23.168C176.171 23.168 177.739 21.824 177.739 19.332V17.974H174.309V19.556H176.031V19.71C176.031 20.732 175.233 21.544 174.141 21.544C172.321 21.544 171.579 19.864 171.579 18.1C171.579 16.574 172.167 14.656 174.141 14.656C175.065 14.656 175.639 15.216 176.073 15.86L177.571 15.006C176.927 13.984 176.031 13.032 174.141 13.032C171.201 13.032 169.843 15.706 169.843 18.1C169.843 20.662 171.117 23.168 174.141 23.168ZM180.506 23H182.186V13.2H180.506V23ZM188.469 23.168C190.401 23.168 191.913 22.104 191.913 20.214C191.913 18.142 190.149 17.526 188.721 17.022C187.699 16.686 186.845 16.392 186.845 15.678C186.845 15.006 187.363 14.628 188.245 14.628C189.169 14.628 189.729 15.062 189.981 15.636L191.493 15.132C191.143 13.928 190.065 13.032 188.357 13.032C186.299 13.032 185.137 14.236 185.137 15.664C185.137 17.526 186.705 18.072 188.105 18.548C189.211 18.926 190.205 19.276 190.205 20.214C190.205 21.11 189.533 21.572 188.525 21.572C187.517 21.572 186.733 20.956 186.327 20.06L184.773 20.634C185.305 22.188 186.663 23.168 188.469 23.168ZM198.414 14.81H201.2V13.2H193.948V14.81H196.734V23H198.414V14.81ZM203.645 23H205.325V19.164H207.369L209.259 23H211.149L209.189 18.982C210.575 18.562 211.205 17.302 211.205 16.182C211.205 14.642 210.421 13.2 207.985 13.2H203.645V23ZM205.325 17.568V14.796H208.013C209.161 14.796 209.469 15.524 209.469 16.182C209.469 16.896 209.105 17.568 208.013 17.568H205.325ZM216.482 23H218.148V19.164L221.69 13.2H219.786L217.322 17.442L214.858 13.2H212.954L216.482 19.164V23Z" fill="white"/>
<path fill-rule="evenodd" clip-rule="evenodd" d="M2.58333 18.0833C4.01007 18.0833 5.16667 16.9267 5.16667 15.5C5.16667 14.0732 4.01007 12.9166 2.58333 12.9166C1.1566 12.9166 0 14.0732 0 15.5C0 16.9267 1.1566 18.0833 2.58333 18.0833ZM5.16667 21.9583C5.16667 23.385 4.01007 24.5416 2.58333 24.5416C1.1566 24.5416 0 23.385 0 21.9583C0 20.5316 1.1566 19.375 2.58333 19.375C4.01007 19.375 5.16667 20.5316 5.16667 21.9583ZM5.16667 28.4166C5.16667 29.8434 4.01007 31 2.58333 31C1.1566 31 0 29.8434 0 28.4166C0 26.9899 1.1566 25.8333 2.58333 25.8333C4.01007 25.8333 5.16667 26.9899 5.16667 28.4166Z" fill="white"/>
<path fill-rule="evenodd" clip-rule="evenodd" d="M21.9583 18.0833C23.3851 18.0833 24.5417 16.9267 24.5417 15.5C24.5417 14.0732 23.3851 12.9166 21.9583 12.9166C20.5316 12.9166 19.375 14.0732 19.375 15.5C19.375 16.9267 20.5316 18.0833 21.9583 18.0833ZM24.5417 21.9583C24.5417 23.385 23.3851 24.5416 21.9583 24.5416C20.5316 24.5416 19.375 23.385 19.375 21.9583C19.375 20.5316 20.5316 19.375 21.9583 19.375C23.3851 19.375 24.5417 20.5316 24.5417 21.9583ZM24.5417 28.4166C24.5417 29.8434 23.3851 31 21.9583 31C20.5316 31 19.375 29.8434 19.375 28.4166C19.375 26.9899 20.5316 25.8333 21.9583 25.8333C23.3851 25.8333 24.5417 26.9899 24.5417 28.4166Z" fill="white"/>
<path fill-rule="evenodd" clip-rule="evenodd" d="M9.04166 5.16667C10.4684 5.16667 11.625 4.01007 11.625 2.58333C11.625 1.1566 10.4684 0 9.04166 0C7.61493 0 6.45833 1.1566 6.45833 2.58333C6.45833 4.01007 7.61493 5.16667 9.04166 5.16667ZM11.625 9.04168C11.625 10.4684 10.4684 11.625 9.04166 11.625C7.61493 11.625 6.45833 10.4684 6.45833 9.04168C6.45833 7.61494 7.61493 6.45834 9.04166 6.45834C10.4684 6.45834 11.625 7.61494 11.625 9.04168ZM9.04166 18.0833C10.4684 18.0833 11.625 16.9267 11.625 15.5C11.625 14.0733 10.4684 12.9167 9.04166 12.9167C7.61493 12.9167 6.45833 14.0733 6.45833 15.5C6.45833 16.9267 7.61493 18.0833 9.04166 18.0833ZM11.625 21.9583C11.625 23.3851 10.4684 24.5417 9.04166 24.5417C7.61493 24.5417 6.45833 23.3851 6.45833 21.9583C6.45833 20.5316 7.61493 19.375 9.04166 19.375C10.4684 19.375 11.625 20.5316 11.625 21.9583ZM11.625 28.4167C11.625 29.8434 10.4684 31 9.04166 31C7.61493 31 6.45833 29.8434 6.45833 28.4167C6.45833 26.9899 7.61493 25.8333 9.04166 25.8333C10.4684 25.8333 11.625 26.9899 11.625 28.4167Z" fill="white"/>
<path fill-rule="evenodd" clip-rule="evenodd" d="M15.5 11.625C16.9267 11.625 18.0833 10.4684 18.0833 9.04165C18.0833 7.61491 16.9267 6.45831 15.5 6.45831C14.0733 6.45831 12.9167 7.61491 12.9167 9.04165C12.9167 10.4684 14.0733 11.625 15.5 11.625ZM18.0833 15.5C18.0833 16.9267 16.9267 18.0833 15.5 18.0833C14.0733 18.0833 12.9167 16.9267 12.9167 15.5C12.9167 14.0732 14.0733 12.9166 15.5 12.9166C16.9267 12.9166 18.0833 14.0732 18.0833 15.5ZM15.5 24.5416C16.9267 24.5416 18.0833 23.385 18.0833 21.9583C18.0833 20.5316 16.9267 19.375 15.5 19.375C14.0733 19.375 12.9167 20.5316 12.9167 21.9583C12.9167 23.385 14.0733 24.5416 15.5 24.5416ZM15.5 31C16.9267 31 18.0833 29.8434 18.0833 28.4166C18.0833 26.9899 16.9267 25.8333 15.5 25.8333C14.0733 25.8333 12.9167 26.9899 12.9167 28.4166C12.9167 29.8434 14.0733 31 15.5 31Z" fill="white"/>
<path fill-rule="evenodd" clip-rule="evenodd" d="M28.4167 11.625C29.8434 11.625 31 10.4684 31 9.04165C31 7.61491 29.8434 6.45831 28.4167 6.45831C26.9899 6.45831 25.8333 7.61491 25.8333 9.04165C25.8333 10.4684 26.9899 11.625 28.4167 11.625ZM31 15.5C31 16.9267 29.8434 18.0833 28.4167 18.0833C26.9899 18.0833 25.8333 16.9267 25.8333 15.5C25.8333 14.0732 26.9899 12.9166 28.4167 12.9166C29.8434 12.9166 31 14.0732 31 15.5ZM28.4167 24.5416C29.8434 24.5416 31 23.385 31 21.9583C31 20.5316 29.8434 19.375 28.4167 19.375C26.9899 19.375 25.8333 20.5316 25.8333 21.9583C25.8333 23.385 26.9899 24.5416 28.4167 24.5416ZM28.4167 31C29.8434 31 31 29.8434 31 28.4166C31 26.9899 29.8434 25.8333 28.4167 25.8333C26.9899 25.8333 25.8333 26.9899 25.8333 28.4166C25.8333 29.8434 26.9899 31 28.4167 31Z" fill="white"/>
</svg>
