<svg width="58" height="41" viewBox="0 0 58 41" fill="none" xmlns="http://www.w3.org/2000/svg">
<path d="M22.8571 28.9699L37.6857 20.3984L22.8571 11.827V28.9699ZM55.8857 6.59844C56.2571 7.9413 56.5143 9.74129 56.6857 12.027C56.8857 14.3127 56.9714 16.2842 56.9714 17.9984L57.1429 20.3984C57.1429 26.6556 56.6857 31.2556 55.8857 34.1984C55.1714 36.7699 53.5143 38.427 50.9429 39.1413C49.6 39.5127 47.1429 39.7699 43.3714 39.9413C39.6571 40.1413 36.2571 40.227 33.1143 40.227L28.5714 40.3984C16.6 40.3984 9.14286 39.9413 6.2 39.1413C3.62857 38.427 1.97143 36.7699 1.25714 34.1984C0.885714 32.8556 0.628572 31.0556 0.457143 28.7699C0.257143 26.4842 0.171428 24.5127 0.171428 22.7984L0 20.3984C0 14.1413 0.457143 9.54129 1.25714 6.59844C1.97143 4.02701 3.62857 2.36987 6.2 1.65558C7.54286 1.28415 10 1.02701 13.7714 0.85558C17.4857 0.65558 20.8857 0.569866 24.0286 0.569866L28.5714 0.398438C40.5429 0.398438 48 0.855581 50.9429 1.65558C53.5143 2.36987 55.1714 4.02701 55.8857 6.59844Z" fill="#88DBF5"/>
</svg>
